<mxfile host="Electron" modified="2023-05-22T06:02:03.053Z" agent="Mozilla/5.0 (Windows NT 10.0; Win64; x64) AppleWebKit/537.36 (KHTML, like Gecko) draw.io/21.2.8 Chrome/112.0.5615.165 Electron/24.2.0 Safari/537.36" etag="efFg6kfb9Wzo4uTG_Xn_" version="21.2.8" type="device">
  <diagram name="Seite-1" id="zN5LHr9J2C804UpB-9Yb">
    <mxGraphModel dx="1434" dy="964" grid="1" gridSize="10" guides="1" tooltips="1" connect="1" arrows="1" fold="1" page="1" pageScale="1" pageWidth="827" pageHeight="1169" math="0" shadow="0">
      <root>
        <mxCell id="0" />
        <mxCell id="1" parent="0" />
        <mxCell id="zRqeTFf40r4F0PG01HyN-1" value="Assets" style="childLayout=tableLayout;recursiveResize=0;shadow=1;" vertex="1" parent="1">
          <mxGeometry x="93" y="150" width="641" height="162" as="geometry" />
        </mxCell>
        <mxCell id="zRqeTFf40r4F0PG01HyN-2" style="shape=tableRow;horizontal=0;startSize=0;swimlaneHead=0;swimlaneBody=0;top=0;left=0;bottom=0;right=0;dropTarget=0;collapsible=0;recursiveResize=0;expand=0;fontStyle=0;" vertex="1" parent="zRqeTFf40r4F0PG01HyN-1">
          <mxGeometry width="641" height="33" as="geometry" />
        </mxCell>
        <mxCell id="zRqeTFf40r4F0PG01HyN-3" value="Id" style="connectable=0;recursiveResize=0;align=center;fontStyle=1;html=1;" vertex="1" parent="zRqeTFf40r4F0PG01HyN-2">
          <mxGeometry width="60" height="33" as="geometry">
            <mxRectangle width="60" height="33" as="alternateBounds" />
          </mxGeometry>
        </mxCell>
        <mxCell id="zRqeTFf40r4F0PG01HyN-4" value="Name" style="connectable=0;recursiveResize=0;align=center;fontStyle=1;html=1;" vertex="1" parent="zRqeTFf40r4F0PG01HyN-2">
          <mxGeometry x="60" width="160" height="33" as="geometry">
            <mxRectangle width="160" height="33" as="alternateBounds" />
          </mxGeometry>
        </mxCell>
        <mxCell id="zRqeTFf40r4F0PG01HyN-5" value="GebJahr" style="connectable=0;recursiveResize=0;align=center;fontStyle=1;html=1;" vertex="1" parent="zRqeTFf40r4F0PG01HyN-2">
          <mxGeometry x="220" width="90" height="33" as="geometry">
            <mxRectangle width="90" height="33" as="alternateBounds" />
          </mxGeometry>
        </mxCell>
        <mxCell id="zRqeTFf40r4F0PG01HyN-22" value="Alter" style="connectable=0;recursiveResize=0;align=center;fontStyle=1;html=1;" vertex="1" parent="zRqeTFf40r4F0PG01HyN-2">
          <mxGeometry x="310" width="60" height="33" as="geometry">
            <mxRectangle width="60" height="33" as="alternateBounds" />
          </mxGeometry>
        </mxCell>
        <mxCell id="zRqeTFf40r4F0PG01HyN-27" value="Bankverbindung" style="connectable=0;recursiveResize=0;align=center;fontStyle=1;html=1;" vertex="1" parent="zRqeTFf40r4F0PG01HyN-2">
          <mxGeometry x="370" width="271" height="33" as="geometry">
            <mxRectangle width="271" height="33" as="alternateBounds" />
          </mxGeometry>
        </mxCell>
        <mxCell id="zRqeTFf40r4F0PG01HyN-6" value="" style="shape=tableRow;horizontal=0;startSize=0;swimlaneHead=0;swimlaneBody=0;top=0;left=0;bottom=0;right=0;dropTarget=0;collapsible=0;recursiveResize=0;expand=0;fontStyle=0;" vertex="1" parent="zRqeTFf40r4F0PG01HyN-1">
          <mxGeometry y="33" width="641" height="32" as="geometry" />
        </mxCell>
        <mxCell id="zRqeTFf40r4F0PG01HyN-7" value="1" style="connectable=0;recursiveResize=0;align=center;whiteSpace=wrap;html=1;" vertex="1" parent="zRqeTFf40r4F0PG01HyN-6">
          <mxGeometry width="60" height="32" as="geometry">
            <mxRectangle width="60" height="32" as="alternateBounds" />
          </mxGeometry>
        </mxCell>
        <mxCell id="zRqeTFf40r4F0PG01HyN-8" value="Urs, Fischer" style="connectable=0;recursiveResize=0;align=center;whiteSpace=wrap;html=1;" vertex="1" parent="zRqeTFf40r4F0PG01HyN-6">
          <mxGeometry x="60" width="160" height="32" as="geometry">
            <mxRectangle width="160" height="32" as="alternateBounds" />
          </mxGeometry>
        </mxCell>
        <mxCell id="zRqeTFf40r4F0PG01HyN-9" value="1990" style="connectable=0;recursiveResize=0;align=center;whiteSpace=wrap;html=1;" vertex="1" parent="zRqeTFf40r4F0PG01HyN-6">
          <mxGeometry x="220" width="90" height="32" as="geometry">
            <mxRectangle width="90" height="32" as="alternateBounds" />
          </mxGeometry>
        </mxCell>
        <mxCell id="zRqeTFf40r4F0PG01HyN-23" value="33" style="connectable=0;recursiveResize=0;align=center;whiteSpace=wrap;html=1;" vertex="1" parent="zRqeTFf40r4F0PG01HyN-6">
          <mxGeometry x="310" width="60" height="32" as="geometry">
            <mxRectangle width="60" height="32" as="alternateBounds" />
          </mxGeometry>
        </mxCell>
        <mxCell id="zRqeTFf40r4F0PG01HyN-28" value="Credit Suisse, CH&amp;nbsp;7150426458941231499702" style="connectable=0;recursiveResize=0;align=center;whiteSpace=wrap;html=1;" vertex="1" parent="zRqeTFf40r4F0PG01HyN-6">
          <mxGeometry x="370" width="271" height="32" as="geometry">
            <mxRectangle width="271" height="32" as="alternateBounds" />
          </mxGeometry>
        </mxCell>
        <mxCell id="zRqeTFf40r4F0PG01HyN-10" value="" style="shape=tableRow;horizontal=0;startSize=0;swimlaneHead=0;swimlaneBody=0;top=0;left=0;bottom=0;right=0;dropTarget=0;collapsible=0;recursiveResize=0;expand=0;fontStyle=1;" vertex="1" parent="zRqeTFf40r4F0PG01HyN-1">
          <mxGeometry y="65" width="641" height="31" as="geometry" />
        </mxCell>
        <mxCell id="zRqeTFf40r4F0PG01HyN-11" value="2" style="connectable=0;recursiveResize=0;whiteSpace=wrap;html=1;" vertex="1" parent="zRqeTFf40r4F0PG01HyN-10">
          <mxGeometry width="60" height="31" as="geometry">
            <mxRectangle width="60" height="31" as="alternateBounds" />
          </mxGeometry>
        </mxCell>
        <mxCell id="zRqeTFf40r4F0PG01HyN-12" value="Hanna, Keller" style="connectable=0;recursiveResize=0;whiteSpace=wrap;html=1;" vertex="1" parent="zRqeTFf40r4F0PG01HyN-10">
          <mxGeometry x="60" width="160" height="31" as="geometry">
            <mxRectangle width="160" height="31" as="alternateBounds" />
          </mxGeometry>
        </mxCell>
        <mxCell id="zRqeTFf40r4F0PG01HyN-13" value="2001" style="connectable=0;recursiveResize=0;whiteSpace=wrap;html=1;" vertex="1" parent="zRqeTFf40r4F0PG01HyN-10">
          <mxGeometry x="220" width="90" height="31" as="geometry">
            <mxRectangle width="90" height="31" as="alternateBounds" />
          </mxGeometry>
        </mxCell>
        <mxCell id="zRqeTFf40r4F0PG01HyN-24" value="22" style="connectable=0;recursiveResize=0;whiteSpace=wrap;html=1;" vertex="1" parent="zRqeTFf40r4F0PG01HyN-10">
          <mxGeometry x="310" width="60" height="31" as="geometry">
            <mxRectangle width="60" height="31" as="alternateBounds" />
          </mxGeometry>
        </mxCell>
        <mxCell id="zRqeTFf40r4F0PG01HyN-29" value="yuh, CH&amp;nbsp;8519478114351373756106" style="connectable=0;recursiveResize=0;whiteSpace=wrap;html=1;" vertex="1" parent="zRqeTFf40r4F0PG01HyN-10">
          <mxGeometry x="370" width="271" height="31" as="geometry">
            <mxRectangle width="271" height="31" as="alternateBounds" />
          </mxGeometry>
        </mxCell>
        <mxCell id="zRqeTFf40r4F0PG01HyN-14" value="" style="shape=tableRow;horizontal=0;startSize=0;swimlaneHead=0;swimlaneBody=0;top=0;left=0;bottom=0;right=0;dropTarget=0;collapsible=0;recursiveResize=0;expand=0;fontStyle=0;" vertex="1" parent="zRqeTFf40r4F0PG01HyN-1">
          <mxGeometry y="96" width="641" height="33" as="geometry" />
        </mxCell>
        <mxCell id="zRqeTFf40r4F0PG01HyN-15" value="3" style="connectable=0;recursiveResize=0;fontStyle=0;align=center;whiteSpace=wrap;html=1;" vertex="1" parent="zRqeTFf40r4F0PG01HyN-14">
          <mxGeometry width="60" height="33" as="geometry">
            <mxRectangle width="60" height="33" as="alternateBounds" />
          </mxGeometry>
        </mxCell>
        <mxCell id="zRqeTFf40r4F0PG01HyN-16" value="Philippe, Zesiger" style="connectable=0;recursiveResize=0;fontStyle=0;align=center;whiteSpace=wrap;html=1;" vertex="1" parent="zRqeTFf40r4F0PG01HyN-14">
          <mxGeometry x="60" width="160" height="33" as="geometry">
            <mxRectangle width="160" height="33" as="alternateBounds" />
          </mxGeometry>
        </mxCell>
        <mxCell id="zRqeTFf40r4F0PG01HyN-17" value="1964" style="connectable=0;recursiveResize=0;fontStyle=0;align=center;whiteSpace=wrap;html=1;" vertex="1" parent="zRqeTFf40r4F0PG01HyN-14">
          <mxGeometry x="220" width="90" height="33" as="geometry">
            <mxRectangle width="90" height="33" as="alternateBounds" />
          </mxGeometry>
        </mxCell>
        <mxCell id="zRqeTFf40r4F0PG01HyN-25" value="59" style="connectable=0;recursiveResize=0;fontStyle=0;align=center;whiteSpace=wrap;html=1;" vertex="1" parent="zRqeTFf40r4F0PG01HyN-14">
          <mxGeometry x="310" width="60" height="33" as="geometry">
            <mxRectangle width="60" height="33" as="alternateBounds" />
          </mxGeometry>
        </mxCell>
        <mxCell id="zRqeTFf40r4F0PG01HyN-30" value="Valiant, CH 1668491437647221805971" style="connectable=0;recursiveResize=0;fontStyle=0;align=center;whiteSpace=wrap;html=1;" vertex="1" parent="zRqeTFf40r4F0PG01HyN-14">
          <mxGeometry x="370" width="271" height="33" as="geometry">
            <mxRectangle width="271" height="33" as="alternateBounds" />
          </mxGeometry>
        </mxCell>
        <mxCell id="zRqeTFf40r4F0PG01HyN-71" style="shape=tableRow;horizontal=0;startSize=0;swimlaneHead=0;swimlaneBody=0;top=0;left=0;bottom=0;right=0;dropTarget=0;collapsible=0;recursiveResize=0;expand=0;fontStyle=0;" vertex="1" parent="zRqeTFf40r4F0PG01HyN-1">
          <mxGeometry y="129" width="641" height="33" as="geometry" />
        </mxCell>
        <mxCell id="zRqeTFf40r4F0PG01HyN-72" value="4" style="connectable=0;recursiveResize=0;fontStyle=0;align=center;whiteSpace=wrap;html=1;" vertex="1" parent="zRqeTFf40r4F0PG01HyN-71">
          <mxGeometry width="60" height="33" as="geometry">
            <mxRectangle width="60" height="33" as="alternateBounds" />
          </mxGeometry>
        </mxCell>
        <mxCell id="zRqeTFf40r4F0PG01HyN-73" value="Rahel, Scherer" style="connectable=0;recursiveResize=0;fontStyle=0;align=center;whiteSpace=wrap;html=1;" vertex="1" parent="zRqeTFf40r4F0PG01HyN-71">
          <mxGeometry x="60" width="160" height="33" as="geometry">
            <mxRectangle width="160" height="33" as="alternateBounds" />
          </mxGeometry>
        </mxCell>
        <mxCell id="zRqeTFf40r4F0PG01HyN-74" value="1975" style="connectable=0;recursiveResize=0;fontStyle=0;align=center;whiteSpace=wrap;html=1;" vertex="1" parent="zRqeTFf40r4F0PG01HyN-71">
          <mxGeometry x="220" width="90" height="33" as="geometry">
            <mxRectangle width="90" height="33" as="alternateBounds" />
          </mxGeometry>
        </mxCell>
        <mxCell id="zRqeTFf40r4F0PG01HyN-75" value="48" style="connectable=0;recursiveResize=0;fontStyle=0;align=center;whiteSpace=wrap;html=1;" vertex="1" parent="zRqeTFf40r4F0PG01HyN-71">
          <mxGeometry x="310" width="60" height="33" as="geometry">
            <mxRectangle width="60" height="33" as="alternateBounds" />
          </mxGeometry>
        </mxCell>
        <mxCell id="zRqeTFf40r4F0PG01HyN-76" value="Credit Suisse, CH&amp;nbsp;5526629195237307073492" style="connectable=0;recursiveResize=0;fontStyle=0;align=center;whiteSpace=wrap;html=1;" vertex="1" parent="zRqeTFf40r4F0PG01HyN-71">
          <mxGeometry x="370" width="271" height="33" as="geometry">
            <mxRectangle width="271" height="33" as="alternateBounds" />
          </mxGeometry>
        </mxCell>
        <mxCell id="zRqeTFf40r4F0PG01HyN-32" value="Assets" style="childLayout=tableLayout;recursiveResize=0;shadow=1;" vertex="1" parent="1">
          <mxGeometry x="49" y="390" width="730" height="162" as="geometry" />
        </mxCell>
        <mxCell id="zRqeTFf40r4F0PG01HyN-33" style="shape=tableRow;horizontal=0;startSize=0;swimlaneHead=0;swimlaneBody=0;top=0;left=0;bottom=0;right=0;dropTarget=0;collapsible=0;recursiveResize=0;expand=0;fontStyle=0;" vertex="1" parent="zRqeTFf40r4F0PG01HyN-32">
          <mxGeometry width="730" height="33" as="geometry" />
        </mxCell>
        <mxCell id="zRqeTFf40r4F0PG01HyN-34" value="Id" style="connectable=0;recursiveResize=0;align=center;fontStyle=1;html=1;" vertex="1" parent="zRqeTFf40r4F0PG01HyN-33">
          <mxGeometry width="60" height="33" as="geometry">
            <mxRectangle width="60" height="33" as="alternateBounds" />
          </mxGeometry>
        </mxCell>
        <mxCell id="zRqeTFf40r4F0PG01HyN-57" value="Vorname" style="connectable=0;recursiveResize=0;align=center;fontStyle=1;html=1;" vertex="1" parent="zRqeTFf40r4F0PG01HyN-33">
          <mxGeometry x="60" width="60" height="33" as="geometry">
            <mxRectangle width="60" height="33" as="alternateBounds" />
          </mxGeometry>
        </mxCell>
        <mxCell id="zRqeTFf40r4F0PG01HyN-35" value="Nachname" style="connectable=0;recursiveResize=0;align=center;fontStyle=1;html=1;" vertex="1" parent="zRqeTFf40r4F0PG01HyN-33">
          <mxGeometry x="120" width="160" height="33" as="geometry">
            <mxRectangle width="160" height="33" as="alternateBounds" />
          </mxGeometry>
        </mxCell>
        <mxCell id="zRqeTFf40r4F0PG01HyN-36" value="GebJahr" style="connectable=0;recursiveResize=0;align=center;fontStyle=1;html=1;" vertex="1" parent="zRqeTFf40r4F0PG01HyN-33">
          <mxGeometry x="280" width="90" height="33" as="geometry">
            <mxRectangle width="90" height="33" as="alternateBounds" />
          </mxGeometry>
        </mxCell>
        <mxCell id="zRqeTFf40r4F0PG01HyN-37" value="Alter" style="connectable=0;recursiveResize=0;align=center;fontStyle=1;html=1;" vertex="1" parent="zRqeTFf40r4F0PG01HyN-33">
          <mxGeometry x="370" width="60" height="33" as="geometry">
            <mxRectangle width="60" height="33" as="alternateBounds" />
          </mxGeometry>
        </mxCell>
        <mxCell id="zRqeTFf40r4F0PG01HyN-65" value="Bank" style="connectable=0;recursiveResize=0;align=center;fontStyle=1;html=1;" vertex="1" parent="zRqeTFf40r4F0PG01HyN-33">
          <mxGeometry x="430" width="80" height="33" as="geometry">
            <mxRectangle width="80" height="33" as="alternateBounds" />
          </mxGeometry>
        </mxCell>
        <mxCell id="zRqeTFf40r4F0PG01HyN-38" value="IBAN" style="connectable=0;recursiveResize=0;align=center;fontStyle=1;html=1;" vertex="1" parent="zRqeTFf40r4F0PG01HyN-33">
          <mxGeometry x="510" width="220" height="33" as="geometry">
            <mxRectangle width="220" height="33" as="alternateBounds" />
          </mxGeometry>
        </mxCell>
        <mxCell id="zRqeTFf40r4F0PG01HyN-39" value="" style="shape=tableRow;horizontal=0;startSize=0;swimlaneHead=0;swimlaneBody=0;top=0;left=0;bottom=0;right=0;dropTarget=0;collapsible=0;recursiveResize=0;expand=0;fontStyle=0;" vertex="1" parent="zRqeTFf40r4F0PG01HyN-32">
          <mxGeometry y="33" width="730" height="32" as="geometry" />
        </mxCell>
        <mxCell id="zRqeTFf40r4F0PG01HyN-40" value="1" style="connectable=0;recursiveResize=0;align=center;whiteSpace=wrap;html=1;" vertex="1" parent="zRqeTFf40r4F0PG01HyN-39">
          <mxGeometry width="60" height="32" as="geometry">
            <mxRectangle width="60" height="32" as="alternateBounds" />
          </mxGeometry>
        </mxCell>
        <mxCell id="zRqeTFf40r4F0PG01HyN-58" value="Urs" style="connectable=0;recursiveResize=0;align=center;whiteSpace=wrap;html=1;" vertex="1" parent="zRqeTFf40r4F0PG01HyN-39">
          <mxGeometry x="60" width="60" height="32" as="geometry">
            <mxRectangle width="60" height="32" as="alternateBounds" />
          </mxGeometry>
        </mxCell>
        <mxCell id="zRqeTFf40r4F0PG01HyN-41" value="Fischer" style="connectable=0;recursiveResize=0;align=center;whiteSpace=wrap;html=1;" vertex="1" parent="zRqeTFf40r4F0PG01HyN-39">
          <mxGeometry x="120" width="160" height="32" as="geometry">
            <mxRectangle width="160" height="32" as="alternateBounds" />
          </mxGeometry>
        </mxCell>
        <mxCell id="zRqeTFf40r4F0PG01HyN-42" value="1990" style="connectable=0;recursiveResize=0;align=center;whiteSpace=wrap;html=1;" vertex="1" parent="zRqeTFf40r4F0PG01HyN-39">
          <mxGeometry x="280" width="90" height="32" as="geometry">
            <mxRectangle width="90" height="32" as="alternateBounds" />
          </mxGeometry>
        </mxCell>
        <mxCell id="zRqeTFf40r4F0PG01HyN-43" value="33" style="connectable=0;recursiveResize=0;align=center;whiteSpace=wrap;html=1;" vertex="1" parent="zRqeTFf40r4F0PG01HyN-39">
          <mxGeometry x="370" width="60" height="32" as="geometry">
            <mxRectangle width="60" height="32" as="alternateBounds" />
          </mxGeometry>
        </mxCell>
        <mxCell id="zRqeTFf40r4F0PG01HyN-66" value="Credit Suisse" style="connectable=0;recursiveResize=0;align=center;whiteSpace=wrap;html=1;" vertex="1" parent="zRqeTFf40r4F0PG01HyN-39">
          <mxGeometry x="430" width="80" height="32" as="geometry">
            <mxRectangle width="80" height="32" as="alternateBounds" />
          </mxGeometry>
        </mxCell>
        <mxCell id="zRqeTFf40r4F0PG01HyN-44" value="CH&amp;nbsp;7150426458941231499702" style="connectable=0;recursiveResize=0;align=center;whiteSpace=wrap;html=1;" vertex="1" parent="zRqeTFf40r4F0PG01HyN-39">
          <mxGeometry x="510" width="220" height="32" as="geometry">
            <mxRectangle width="220" height="32" as="alternateBounds" />
          </mxGeometry>
        </mxCell>
        <mxCell id="zRqeTFf40r4F0PG01HyN-45" value="" style="shape=tableRow;horizontal=0;startSize=0;swimlaneHead=0;swimlaneBody=0;top=0;left=0;bottom=0;right=0;dropTarget=0;collapsible=0;recursiveResize=0;expand=0;fontStyle=1;" vertex="1" parent="zRqeTFf40r4F0PG01HyN-32">
          <mxGeometry y="65" width="730" height="31" as="geometry" />
        </mxCell>
        <mxCell id="zRqeTFf40r4F0PG01HyN-46" value="2" style="connectable=0;recursiveResize=0;whiteSpace=wrap;html=1;" vertex="1" parent="zRqeTFf40r4F0PG01HyN-45">
          <mxGeometry width="60" height="31" as="geometry">
            <mxRectangle width="60" height="31" as="alternateBounds" />
          </mxGeometry>
        </mxCell>
        <mxCell id="zRqeTFf40r4F0PG01HyN-59" value="Hanna" style="connectable=0;recursiveResize=0;whiteSpace=wrap;html=1;" vertex="1" parent="zRqeTFf40r4F0PG01HyN-45">
          <mxGeometry x="60" width="60" height="31" as="geometry">
            <mxRectangle width="60" height="31" as="alternateBounds" />
          </mxGeometry>
        </mxCell>
        <mxCell id="zRqeTFf40r4F0PG01HyN-47" value="Keller" style="connectable=0;recursiveResize=0;whiteSpace=wrap;html=1;" vertex="1" parent="zRqeTFf40r4F0PG01HyN-45">
          <mxGeometry x="120" width="160" height="31" as="geometry">
            <mxRectangle width="160" height="31" as="alternateBounds" />
          </mxGeometry>
        </mxCell>
        <mxCell id="zRqeTFf40r4F0PG01HyN-48" value="2001" style="connectable=0;recursiveResize=0;whiteSpace=wrap;html=1;" vertex="1" parent="zRqeTFf40r4F0PG01HyN-45">
          <mxGeometry x="280" width="90" height="31" as="geometry">
            <mxRectangle width="90" height="31" as="alternateBounds" />
          </mxGeometry>
        </mxCell>
        <mxCell id="zRqeTFf40r4F0PG01HyN-49" value="22" style="connectable=0;recursiveResize=0;whiteSpace=wrap;html=1;" vertex="1" parent="zRqeTFf40r4F0PG01HyN-45">
          <mxGeometry x="370" width="60" height="31" as="geometry">
            <mxRectangle width="60" height="31" as="alternateBounds" />
          </mxGeometry>
        </mxCell>
        <mxCell id="zRqeTFf40r4F0PG01HyN-67" value="yuh" style="connectable=0;recursiveResize=0;whiteSpace=wrap;html=1;" vertex="1" parent="zRqeTFf40r4F0PG01HyN-45">
          <mxGeometry x="430" width="80" height="31" as="geometry">
            <mxRectangle width="80" height="31" as="alternateBounds" />
          </mxGeometry>
        </mxCell>
        <mxCell id="zRqeTFf40r4F0PG01HyN-50" value="CH&amp;nbsp;8519478114351373756106" style="connectable=0;recursiveResize=0;whiteSpace=wrap;html=1;" vertex="1" parent="zRqeTFf40r4F0PG01HyN-45">
          <mxGeometry x="510" width="220" height="31" as="geometry">
            <mxRectangle width="220" height="31" as="alternateBounds" />
          </mxGeometry>
        </mxCell>
        <mxCell id="zRqeTFf40r4F0PG01HyN-51" value="" style="shape=tableRow;horizontal=0;startSize=0;swimlaneHead=0;swimlaneBody=0;top=0;left=0;bottom=0;right=0;dropTarget=0;collapsible=0;recursiveResize=0;expand=0;fontStyle=0;" vertex="1" parent="zRqeTFf40r4F0PG01HyN-32">
          <mxGeometry y="96" width="730" height="33" as="geometry" />
        </mxCell>
        <mxCell id="zRqeTFf40r4F0PG01HyN-52" value="3" style="connectable=0;recursiveResize=0;fontStyle=0;align=center;whiteSpace=wrap;html=1;" vertex="1" parent="zRqeTFf40r4F0PG01HyN-51">
          <mxGeometry width="60" height="33" as="geometry">
            <mxRectangle width="60" height="33" as="alternateBounds" />
          </mxGeometry>
        </mxCell>
        <mxCell id="zRqeTFf40r4F0PG01HyN-60" value="Philippe" style="connectable=0;recursiveResize=0;fontStyle=0;align=center;whiteSpace=wrap;html=1;" vertex="1" parent="zRqeTFf40r4F0PG01HyN-51">
          <mxGeometry x="60" width="60" height="33" as="geometry">
            <mxRectangle width="60" height="33" as="alternateBounds" />
          </mxGeometry>
        </mxCell>
        <mxCell id="zRqeTFf40r4F0PG01HyN-53" value="Zesiger" style="connectable=0;recursiveResize=0;fontStyle=0;align=center;whiteSpace=wrap;html=1;" vertex="1" parent="zRqeTFf40r4F0PG01HyN-51">
          <mxGeometry x="120" width="160" height="33" as="geometry">
            <mxRectangle width="160" height="33" as="alternateBounds" />
          </mxGeometry>
        </mxCell>
        <mxCell id="zRqeTFf40r4F0PG01HyN-54" value="1964" style="connectable=0;recursiveResize=0;fontStyle=0;align=center;whiteSpace=wrap;html=1;" vertex="1" parent="zRqeTFf40r4F0PG01HyN-51">
          <mxGeometry x="280" width="90" height="33" as="geometry">
            <mxRectangle width="90" height="33" as="alternateBounds" />
          </mxGeometry>
        </mxCell>
        <mxCell id="zRqeTFf40r4F0PG01HyN-55" value="59" style="connectable=0;recursiveResize=0;fontStyle=0;align=center;whiteSpace=wrap;html=1;" vertex="1" parent="zRqeTFf40r4F0PG01HyN-51">
          <mxGeometry x="370" width="60" height="33" as="geometry">
            <mxRectangle width="60" height="33" as="alternateBounds" />
          </mxGeometry>
        </mxCell>
        <mxCell id="zRqeTFf40r4F0PG01HyN-68" value="Valiant" style="connectable=0;recursiveResize=0;fontStyle=0;align=center;whiteSpace=wrap;html=1;" vertex="1" parent="zRqeTFf40r4F0PG01HyN-51">
          <mxGeometry x="430" width="80" height="33" as="geometry">
            <mxRectangle width="80" height="33" as="alternateBounds" />
          </mxGeometry>
        </mxCell>
        <mxCell id="zRqeTFf40r4F0PG01HyN-56" value="CH 1668491437647221805971" style="connectable=0;recursiveResize=0;fontStyle=0;align=center;whiteSpace=wrap;html=1;" vertex="1" parent="zRqeTFf40r4F0PG01HyN-51">
          <mxGeometry x="510" width="220" height="33" as="geometry">
            <mxRectangle width="220" height="33" as="alternateBounds" />
          </mxGeometry>
        </mxCell>
        <mxCell id="zRqeTFf40r4F0PG01HyN-77" style="shape=tableRow;horizontal=0;startSize=0;swimlaneHead=0;swimlaneBody=0;top=0;left=0;bottom=0;right=0;dropTarget=0;collapsible=0;recursiveResize=0;expand=0;fontStyle=0;" vertex="1" parent="zRqeTFf40r4F0PG01HyN-32">
          <mxGeometry y="129" width="730" height="33" as="geometry" />
        </mxCell>
        <mxCell id="zRqeTFf40r4F0PG01HyN-78" value="4" style="connectable=0;recursiveResize=0;fontStyle=0;align=center;whiteSpace=wrap;html=1;" vertex="1" parent="zRqeTFf40r4F0PG01HyN-77">
          <mxGeometry width="60" height="33" as="geometry">
            <mxRectangle width="60" height="33" as="alternateBounds" />
          </mxGeometry>
        </mxCell>
        <mxCell id="zRqeTFf40r4F0PG01HyN-79" value="Rahel" style="connectable=0;recursiveResize=0;fontStyle=0;align=center;whiteSpace=wrap;html=1;" vertex="1" parent="zRqeTFf40r4F0PG01HyN-77">
          <mxGeometry x="60" width="60" height="33" as="geometry">
            <mxRectangle width="60" height="33" as="alternateBounds" />
          </mxGeometry>
        </mxCell>
        <mxCell id="zRqeTFf40r4F0PG01HyN-80" value="Scherer" style="connectable=0;recursiveResize=0;fontStyle=0;align=center;whiteSpace=wrap;html=1;" vertex="1" parent="zRqeTFf40r4F0PG01HyN-77">
          <mxGeometry x="120" width="160" height="33" as="geometry">
            <mxRectangle width="160" height="33" as="alternateBounds" />
          </mxGeometry>
        </mxCell>
        <mxCell id="zRqeTFf40r4F0PG01HyN-81" value="1975" style="connectable=0;recursiveResize=0;fontStyle=0;align=center;whiteSpace=wrap;html=1;" vertex="1" parent="zRqeTFf40r4F0PG01HyN-77">
          <mxGeometry x="280" width="90" height="33" as="geometry">
            <mxRectangle width="90" height="33" as="alternateBounds" />
          </mxGeometry>
        </mxCell>
        <mxCell id="zRqeTFf40r4F0PG01HyN-82" value="48" style="connectable=0;recursiveResize=0;fontStyle=0;align=center;whiteSpace=wrap;html=1;" vertex="1" parent="zRqeTFf40r4F0PG01HyN-77">
          <mxGeometry x="370" width="60" height="33" as="geometry">
            <mxRectangle width="60" height="33" as="alternateBounds" />
          </mxGeometry>
        </mxCell>
        <mxCell id="zRqeTFf40r4F0PG01HyN-83" value="Credit Suisse" style="connectable=0;recursiveResize=0;fontStyle=0;align=center;whiteSpace=wrap;html=1;" vertex="1" parent="zRqeTFf40r4F0PG01HyN-77">
          <mxGeometry x="430" width="80" height="33" as="geometry">
            <mxRectangle width="80" height="33" as="alternateBounds" />
          </mxGeometry>
        </mxCell>
        <mxCell id="zRqeTFf40r4F0PG01HyN-84" value="&lt;span style=&quot;color: rgb(0, 0, 0); font-family: Helvetica; font-size: 12px; font-style: normal; font-variant-ligatures: normal; font-variant-caps: normal; font-weight: 400; letter-spacing: normal; orphans: 2; text-align: center; text-indent: 0px; text-transform: none; widows: 2; word-spacing: 0px; -webkit-text-stroke-width: 0px; background-color: rgb(251, 251, 251); text-decoration-thickness: initial; text-decoration-style: initial; text-decoration-color: initial; float: none; display: inline !important;&quot;&gt;CH&amp;nbsp;5526629195237307073492&lt;/span&gt;" style="connectable=0;recursiveResize=0;fontStyle=0;align=center;whiteSpace=wrap;html=1;" vertex="1" parent="zRqeTFf40r4F0PG01HyN-77">
          <mxGeometry x="510" width="220" height="33" as="geometry">
            <mxRectangle width="220" height="33" as="alternateBounds" />
          </mxGeometry>
        </mxCell>
        <mxCell id="zRqeTFf40r4F0PG01HyN-69" value="&lt;font style=&quot;font-size: 32px;&quot;&gt;Nicht Normalisiert&lt;/font&gt;" style="text;html=1;strokeColor=none;fillColor=none;align=center;verticalAlign=middle;whiteSpace=wrap;rounded=0;" vertex="1" parent="1">
          <mxGeometry x="284" y="90" width="260" height="30" as="geometry" />
        </mxCell>
        <mxCell id="zRqeTFf40r4F0PG01HyN-70" value="&lt;span style=&quot;font-size: 32px;&quot;&gt;1. Normalform&lt;/span&gt;" style="text;html=1;strokeColor=none;fillColor=none;align=center;verticalAlign=middle;whiteSpace=wrap;rounded=0;" vertex="1" parent="1">
          <mxGeometry x="284" y="340" width="260" height="30" as="geometry" />
        </mxCell>
      </root>
    </mxGraphModel>
  </diagram>
</mxfile>
